# xmcd CD database file
#
# Track frame offsets:
#	150
#	11597
#	22330
#	33625
#	44645
#	57640
#	70090
#	84765
#	97967
#	111322
#	123732
#	135907
#	149570
#	163242
#
# Disc length: 2309 seconds
#
# Revision: 0
# Processed by: cddbd v1.5.2PL0 Copyright (c) Steve Scherf et al.
# Submitted via: CDex 1.50Beta7
#
DISCID=cd09030e
DTITLE=teixeira de manals  - revivendo o sussesso 
DYEAR=1900
DGENRE=Merengue
TTITLE0=balansando com o sax 
TTITLE1=mechendo na lambada 
TTITLE2=vamos forrosá 
TTITLE3=fuxicando 
TTITLE4=lambada do interior 
TTITLE5=pra lá, e pra cá 
TTITLE6=balanso do norte 
TTITLE7=esse bico é bom 
TTITLE8=é no remelexo 
TTITLE9=remechendo na lambada 
TTITLE10=sax na lambada 
TTITLE11=deixa meu sax entrar 
TTITLE12=xote do interior 
TTITLE13=meu forrosão 
EXTD=
EXTT0=
EXTT1=
EXTT2=
EXTT3=
EXTT4=
EXTT5=
EXTT6=
EXTT7=
EXTT8=
EXTT9=
EXTT10=
EXTT11=
EXTT12=
EXTT13=
PLAYORDER=
